<?xml version="1.0" standalone="no"?>
 <!DOCTYPE svg PUBLIC "-//W3C//DTD SVG 1.1//EN" 
 "http://www.w3.org/Graphics/SVG/1.1/DTD/svg11.dtd"> 
<svg
  xmlns:svg="http://www.w3.org/2000/svg"
  xmlns="http://www.w3.org/2000/svg"
  xmlns:xlink="http://www.w3.org/1999/xlink"
  xmlns:inkscape="http://www.inkscape.org/namespaces/inkscape"
  version="1.1"
  width="297.0022mm" height="210.0072mm" viewBox="0.0000 0.0000 297.0022 210.0072">
<title>SVG Image created as Raspberry_Pico_Breakout-User_Drawings.svg date 2026-05-19T12:37:35 </title>
  <desc>Image generated by PCBNEW </desc>
<g style="fill:#000000; fill-opacity:1.0000;stroke:#000000; stroke-opacity:1.0000;
stroke-linecap:round; stroke-linejoin:round;"
 transform="translate(0 0) scale(1 1)">
</g>
<g style="fill:none; 
stroke:#000000; stroke-width:0.1500; stroke-opacity:1; 
stroke-linecap:round; stroke-linejoin:round;">
<text x="153.2800" y="59.6500"
textLength="4.5357" font-size="1.3333" lengthAdjust="spacingAndGlyphs"
text-anchor="middle" opacity="0" stroke-opacity="0">40.64</text>
<g class="stroked-text"><desc>40.64</desc>
<path d="M151.8038 58.9382
L151.8038 59.6048
" />
<path d="M151.5657 58.5572
L151.3276 59.2715
" />
<path d="M151.3276 59.2715
L151.9467 59.2715
" />
<path d="M152.5181 58.6048
L152.6133 58.6048
" />
<path d="M152.6133 58.6048
L152.7086 58.6524
" />
<path d="M152.7086 58.6524
L152.7562 58.7001
" />
<path d="M152.7562 58.7001
L152.8038 58.7953
" />
<path d="M152.8038 58.7953
L152.8514 58.9858
" />
<path d="M152.8514 58.9858
L152.8514 59.2239
" />
<path d="M152.8514 59.2239
L152.8038 59.4143
" />
<path d="M152.8038 59.4143
L152.7562 59.5096
" />
<path d="M152.7562 59.5096
L152.7086 59.5572
" />
<path d="M152.7086 59.5572
L152.6133 59.6048
" />
<path d="M152.6133 59.6048
L152.5181 59.6048
" />
<path d="M152.5181 59.6048
L152.4229 59.5572
" />
<path d="M152.4229 59.5572
L152.3752 59.5096
" />
<path d="M152.3752 59.5096
L152.3276 59.4143
" />
<path d="M152.3276 59.4143
L152.2800 59.2239
" />
<path d="M152.2800 59.2239
L152.2800 58.9858
" />
<path d="M152.2800 58.9858
L152.3276 58.7953
" />
<path d="M152.3276 58.7953
L152.3752 58.7001
" />
<path d="M152.3752 58.7001
L152.4229 58.6524
" />
<path d="M152.4229 58.6524
L152.5181 58.6048
" />
<path d="M153.2800 59.5096
L153.3276 59.5572
" />
<path d="M153.3276 59.5572
L153.2800 59.6048
" />
<path d="M153.2800 59.6048
L153.2324 59.5572
" />
<path d="M153.2324 59.5572
L153.2800 59.5096
" />
<path d="M153.2800 59.5096
L153.2800 59.6048
" />
<path d="M154.1848 58.6048
L153.9943 58.6048
" />
<path d="M153.9943 58.6048
L153.8990 58.6524
" />
<path d="M153.8990 58.6524
L153.8514 58.7001
" />
<path d="M153.8514 58.7001
L153.7562 58.8429
" />
<path d="M153.7562 58.8429
L153.7086 59.0334
" />
<path d="M153.7086 59.0334
L153.7086 59.4143
" />
<path d="M153.7086 59.4143
L153.7562 59.5096
" />
<path d="M153.7562 59.5096
L153.8038 59.5572
" />
<path d="M153.8038 59.5572
L153.8990 59.6048
" />
<path d="M153.8990 59.6048
L154.0895 59.6048
" />
<path d="M154.0895 59.6048
L154.1848 59.5572
" />
<path d="M154.1848 59.5572
L154.2324 59.5096
" />
<path d="M154.2324 59.5096
L154.2800 59.4143
" />
<path d="M154.2800 59.4143
L154.2800 59.1762
" />
<path d="M154.2800 59.1762
L154.2324 59.0810
" />
<path d="M154.2324 59.0810
L154.1848 59.0334
" />
<path d="M154.1848 59.0334
L154.0895 58.9858
" />
<path d="M154.0895 58.9858
L153.8990 58.9858
" />
<path d="M153.8990 58.9858
L153.8038 59.0334
" />
<path d="M153.8038 59.0334
L153.7562 59.0810
" />
<path d="M153.7562 59.0810
L153.7086 59.1762
" />
<path d="M155.1371 58.9382
L155.1371 59.6048
" />
<path d="M154.8990 58.5572
L154.6610 59.2715
" />
<path d="M154.6610 59.2715
L155.2800 59.2715
" />
</g></g>
<g style="fill:none; 
stroke:#000000; stroke-width:0.1000; stroke-opacity:1; 
stroke-linecap:round; stroke-linejoin:round;">
<path d="M173.6000 68.1100
L173.6000 59.7136
" />
<path d="M132.9600 59.7136
L132.9600 68.1100
" />
<path d="M173.6000 60.3000
L132.9600 60.3000
" />
<path d="M173.6000 60.3000
L172.4735 60.8864
" />
<path d="M173.6000 60.3000
L172.4735 59.7136
" />
<path d="M132.9600 60.3000
L134.0865 59.7136
" />
<path d="M132.9600 60.3000
L134.0865 60.8864
" />
</g>
<g style="fill:none; 
stroke:#000000; stroke-width:0.1500; stroke-opacity:1; 
stroke-linecap:round; stroke-linejoin:round;">
<text x="153.3000" y="62.6500"
textLength="4.5357" font-size="1.3333" lengthAdjust="spacingAndGlyphs"
text-anchor="middle" opacity="0" stroke-opacity="0">17.78</text>
<g class="stroked-text"><desc>17.78</desc>
<path d="M151.9190 62.6048
L151.3476 62.6048
" />
<path d="M151.6333 62.6048
L151.6333 61.6048
" />
<path d="M151.6333 61.6048
L151.5381 61.7477
" />
<path d="M151.5381 61.7477
L151.4429 61.8429
" />
<path d="M151.4429 61.8429
L151.3476 61.8905
" />
<path d="M152.2524 61.6048
L152.9190 61.6048
" />
<path d="M152.9190 61.6048
L152.4905 62.6048
" />
<path d="M153.3000 62.5096
L153.3476 62.5572
" />
<path d="M153.3476 62.5572
L153.3000 62.6048
" />
<path d="M153.3000 62.6048
L153.2524 62.5572
" />
<path d="M153.2524 62.5572
L153.3000 62.5096
" />
<path d="M153.3000 62.5096
L153.3000 62.6048
" />
<path d="M153.6810 61.6048
L154.3476 61.6048
" />
<path d="M154.3476 61.6048
L153.9190 62.6048
" />
<path d="M154.8714 62.0334
L154.7762 61.9858
" />
<path d="M154.7762 61.9858
L154.7286 61.9382
" />
<path d="M154.7286 61.9382
L154.6810 61.8429
" />
<path d="M154.6810 61.8429
L154.6810 61.7953
" />
<path d="M154.6810 61.7953
L154.7286 61.7001
" />
<path d="M154.7286 61.7001
L154.7762 61.6524
" />
<path d="M154.7762 61.6524
L154.8714 61.6048
" />
<path d="M154.8714 61.6048
L155.0619 61.6048
" />
<path d="M155.0619 61.6048
L155.1571 61.6524
" />
<path d="M155.1571 61.6524
L155.2048 61.7001
" />
<path d="M155.2048 61.7001
L155.2524 61.7953
" />
<path d="M155.2524 61.7953
L155.2524 61.8429
" />
<path d="M155.2524 61.8429
L155.2048 61.9382
" />
<path d="M155.2048 61.9382
L155.1571 61.9858
" />
<path d="M155.1571 61.9858
L155.0619 62.0334
" />
<path d="M155.0619 62.0334
L154.8714 62.0334
" />
<path d="M154.8714 62.0334
L154.7762 62.0810
" />
<path d="M154.7762 62.0810
L154.7286 62.1286
" />
<path d="M154.7286 62.1286
L154.6810 62.2239
" />
<path d="M154.6810 62.2239
L154.6810 62.4143
" />
<path d="M154.6810 62.4143
L154.7286 62.5096
" />
<path d="M154.7286 62.5096
L154.7762 62.5572
" />
<path d="M154.7762 62.5572
L154.8714 62.6048
" />
<path d="M154.8714 62.6048
L155.0619 62.6048
" />
<path d="M155.0619 62.6048
L155.1571 62.5572
" />
<path d="M155.1571 62.5572
L155.2048 62.5096
" />
<path d="M155.2048 62.5096
L155.2524 62.4143
" />
<path d="M155.2524 62.4143
L155.2524 62.2239
" />
<path d="M155.2524 62.2239
L155.2048 62.1286
" />
<path d="M155.2048 62.1286
L155.1571 62.0810
" />
<path d="M155.1571 62.0810
L155.0619 62.0334
" />
</g></g>
<g style="fill:none; 
stroke:#000000; stroke-width:0.1000; stroke-opacity:1; 
stroke-linecap:round; stroke-linejoin:round;">
<path d="M144.3900 71.9200
L144.3900 62.6636
" />
<path d="M162.1700 62.6636
L162.1700 71.8900
" />
<path d="M144.3900 63.2500
L162.1700 63.2500
" />
<path d="M144.3900 63.2500
L145.5165 62.6636
" />
<path d="M144.3900 63.2500
L145.5165 63.8364
" />
<path d="M162.1700 63.2500
L161.0435 63.8364
" />
<path d="M162.1700 63.2500
L161.0435 62.6636
" />
</g>
<g style="fill:none; 
stroke:#000000; stroke-width:0.1500; stroke-opacity:1; 
stroke-linecap:round; stroke-linejoin:round;">
<g transform="rotate(-90.000000 187.5700 96.5500)">
<text x="187.5700" y="97.0500"
textLength="3.5833" font-size="1.3333" lengthAdjust="spacingAndGlyphs"
text-anchor="middle" opacity="0" stroke-opacity="0">63.5</text>
</g>
<g class="stroked-text"><desc>63.5</desc>
<path d="M187.0248 97.5500
L187.0248 97.7405
" />
<path d="M187.0248 97.7405
L187.0724 97.8357
" />
<path d="M187.0724 97.8357
L187.1201 97.8833
" />
<path d="M187.1201 97.8833
L187.2629 97.9786
" />
<path d="M187.2629 97.9786
L187.4534 98.0262
" />
<path d="M187.4534 98.0262
L187.8343 98.0262
" />
<path d="M187.8343 98.0262
L187.9296 97.9786
" />
<path d="M187.9296 97.9786
L187.9772 97.9310
" />
<path d="M187.9772 97.9310
L188.0248 97.8357
" />
<path d="M188.0248 97.8357
L188.0248 97.6452
" />
<path d="M188.0248 97.6452
L187.9772 97.5500
" />
<path d="M187.9772 97.5500
L187.9296 97.5024
" />
<path d="M187.9296 97.5024
L187.8343 97.4548
" />
<path d="M187.8343 97.4548
L187.5962 97.4548
" />
<path d="M187.5962 97.4548
L187.5010 97.5024
" />
<path d="M187.5010 97.5024
L187.4534 97.5500
" />
<path d="M187.4534 97.5500
L187.4058 97.6452
" />
<path d="M187.4058 97.6452
L187.4058 97.8357
" />
<path d="M187.4058 97.8357
L187.4534 97.9310
" />
<path d="M187.4534 97.9310
L187.5010 97.9786
" />
<path d="M187.5010 97.9786
L187.5962 98.0262
" />
<path d="M187.0248 97.1214
L187.0248 96.5024
" />
<path d="M187.0248 96.5024
L187.4058 96.8357
" />
<path d="M187.4058 96.8357
L187.4058 96.6929
" />
<path d="M187.4058 96.6929
L187.4534 96.5976
" />
<path d="M187.4534 96.5976
L187.5010 96.5500
" />
<path d="M187.5010 96.5500
L187.5962 96.5024
" />
<path d="M187.5962 96.5024
L187.8343 96.5024
" />
<path d="M187.8343 96.5024
L187.9296 96.5500
" />
<path d="M187.9296 96.5500
L187.9772 96.5976
" />
<path d="M187.9772 96.5976
L188.0248 96.6929
" />
<path d="M188.0248 96.6929
L188.0248 96.9786
" />
<path d="M188.0248 96.9786
L187.9772 97.0738
" />
<path d="M187.9772 97.0738
L187.9296 97.1214
" />
<path d="M187.9296 96.0738
L187.9772 96.0262
" />
<path d="M187.9772 96.0262
L188.0248 96.0738
" />
<path d="M188.0248 96.0738
L187.9772 96.1214
" />
<path d="M187.9772 96.1214
L187.9296 96.0738
" />
<path d="M187.9296 96.0738
L188.0248 96.0738
" />
<path d="M187.0248 95.1214
L187.0248 95.5976
" />
<path d="M187.0248 95.5976
L187.5010 95.6452
" />
<path d="M187.5010 95.6452
L187.4534 95.5976
" />
<path d="M187.4534 95.5976
L187.4058 95.5024
" />
<path d="M187.4058 95.5024
L187.4058 95.2643
" />
<path d="M187.4058 95.2643
L187.4534 95.1690
" />
<path d="M187.4534 95.1690
L187.5010 95.1214
" />
<path d="M187.5010 95.1214
L187.5962 95.0738
" />
<path d="M187.5962 95.0738
L187.8343 95.0738
" />
<path d="M187.8343 95.0738
L187.9296 95.1214
" />
<path d="M187.9296 95.1214
L187.9772 95.1690
" />
<path d="M187.9772 95.1690
L188.0248 95.2643
" />
<path d="M188.0248 95.2643
L188.0248 95.5024
" />
<path d="M188.0248 95.5024
L187.9772 95.5976
" />
<path d="M187.9772 95.5976
L187.9296 95.6452
" />
</g></g>
<g style="fill:none; 
stroke:#000000; stroke-width:0.1000; stroke-opacity:1; 
stroke-linecap:round; stroke-linejoin:round;">
<path d="M177.9100 64.8000
L190.6964 64.8000
" />
<path d="M190.6964 128.3000
L177.9100 128.3000
" />
<path d="M190.1100 64.8000
L190.1100 128.3000
" />
<path d="M190.1100 64.8000
L190.6964 65.9265
" />
<path d="M190.1100 64.8000
L189.5236 65.9265
" />
<path d="M190.1100 128.3000
L189.5236 127.1735
" />
<path d="M190.1100 128.3000
L190.6964 127.1735
" />
</g>
<g style="fill:none; 
stroke:#000000; stroke-width:0.1500; stroke-opacity:1; 
stroke-linecap:round; stroke-linejoin:round;">
<text x="153.1500" y="56.5300"
textLength="2.1548" font-size="1.3333" lengthAdjust="spacingAndGlyphs"
text-anchor="middle" opacity="0" stroke-opacity="0">48</text>
<g class="stroked-text"><desc>48</desc>
<path d="M152.8643 55.8182
L152.8643 56.4848
" />
<path d="M152.6262 55.4372
L152.3881 56.1515
" />
<path d="M152.3881 56.1515
L153.0071 56.1515
" />
<path d="M153.5310 55.9134
L153.4357 55.8658
" />
<path d="M153.4357 55.8658
L153.3881 55.8182
" />
<path d="M153.3881 55.8182
L153.3405 55.7229
" />
<path d="M153.3405 55.7229
L153.3405 55.6753
" />
<path d="M153.3405 55.6753
L153.3881 55.5801
" />
<path d="M153.3881 55.5801
L153.4357 55.5324
" />
<path d="M153.4357 55.5324
L153.5310 55.4848
" />
<path d="M153.5310 55.4848
L153.7214 55.4848
" />
<path d="M153.7214 55.4848
L153.8167 55.5324
" />
<path d="M153.8167 55.5324
L153.8643 55.5801
" />
<path d="M153.8643 55.5801
L153.9119 55.6753
" />
<path d="M153.9119 55.6753
L153.9119 55.7229
" />
<path d="M153.9119 55.7229
L153.8643 55.8182
" />
<path d="M153.8643 55.8182
L153.8167 55.8658
" />
<path d="M153.8167 55.8658
L153.7214 55.9134
" />
<path d="M153.7214 55.9134
L153.5310 55.9134
" />
<path d="M153.5310 55.9134
L153.4357 55.9610
" />
<path d="M153.4357 55.9610
L153.3881 56.0086
" />
<path d="M153.3881 56.0086
L153.3405 56.1039
" />
<path d="M153.3405 56.1039
L153.3405 56.2943
" />
<path d="M153.3405 56.2943
L153.3881 56.3896
" />
<path d="M153.3881 56.3896
L153.4357 56.4372
" />
<path d="M153.4357 56.4372
L153.5310 56.4848
" />
<path d="M153.5310 56.4848
L153.7214 56.4848
" />
<path d="M153.7214 56.4848
L153.8167 56.4372
" />
<path d="M153.8167 56.4372
L153.8643 56.3896
" />
<path d="M153.8643 56.3896
L153.9119 56.2943
" />
<path d="M153.9119 56.2943
L153.9119 56.1039
" />
<path d="M153.9119 56.1039
L153.8643 56.0086
" />
<path d="M153.8643 56.0086
L153.8167 55.9610
" />
<path d="M153.8167 55.9610
L153.7214 55.9134
" />
</g></g>
<g style="fill:none; 
stroke:#000000; stroke-width:0.1000; stroke-opacity:1; 
stroke-linecap:round; stroke-linejoin:round;">
<path d="M129.1500 64.3000
L129.1500 56.5936
" />
<path d="M177.1500 56.5936
L177.1500 64.3000
" />
<path d="M129.1500 57.1800
L177.1500 57.1800
" />
<path d="M129.1500 57.1800
L130.2765 56.5936
" />
<path d="M129.1500 57.1800
L130.2765 57.7664
" />
<path d="M177.1500 57.1800
L176.0235 57.7664
" />
<path d="M177.1500 57.1800
L176.0235 56.5936
" />
</g>
<g style="fill:none; 
stroke:#000000; stroke-width:0.1500; stroke-opacity:1; 
stroke-linecap:round; stroke-linejoin:round;">
<g transform="rotate(-90.000000 182.5000 96.5500)">
<text x="182.5000" y="97.0500"
textLength="4.5357" font-size="1.3333" lengthAdjust="spacingAndGlyphs"
text-anchor="middle" opacity="0" stroke-opacity="0">55.88</text>
</g>
<g class="stroked-text"><desc>55.88</desc>
<path d="M181.9548 97.9786
L181.9548 98.4548
" />
<path d="M181.9548 98.4548
L182.4310 98.5024
" />
<path d="M182.4310 98.5024
L182.3834 98.4548
" />
<path d="M182.3834 98.4548
L182.3358 98.3595
" />
<path d="M182.3358 98.3595
L182.3358 98.1214
" />
<path d="M182.3358 98.1214
L182.3834 98.0262
" />
<path d="M182.3834 98.0262
L182.4310 97.9786
" />
<path d="M182.4310 97.9786
L182.5262 97.9310
" />
<path d="M182.5262 97.9310
L182.7643 97.9310
" />
<path d="M182.7643 97.9310
L182.8596 97.9786
" />
<path d="M182.8596 97.9786
L182.9072 98.0262
" />
<path d="M182.9072 98.0262
L182.9548 98.1214
" />
<path d="M182.9548 98.1214
L182.9548 98.3595
" />
<path d="M182.9548 98.3595
L182.9072 98.4548
" />
<path d="M182.9072 98.4548
L182.8596 98.5024
" />
<path d="M181.9548 97.0262
L181.9548 97.5024
" />
<path d="M181.9548 97.5024
L182.4310 97.5500
" />
<path d="M182.4310 97.5500
L182.3834 97.5024
" />
<path d="M182.3834 97.5024
L182.3358 97.4071
" />
<path d="M182.3358 97.4071
L182.3358 97.1690
" />
<path d="M182.3358 97.1690
L182.3834 97.0738
" />
<path d="M182.3834 97.0738
L182.4310 97.0262
" />
<path d="M182.4310 97.0262
L182.5262 96.9786
" />
<path d="M182.5262 96.9786
L182.7643 96.9786
" />
<path d="M182.7643 96.9786
L182.8596 97.0262
" />
<path d="M182.8596 97.0262
L182.9072 97.0738
" />
<path d="M182.9072 97.0738
L182.9548 97.1690
" />
<path d="M182.9548 97.1690
L182.9548 97.4071
" />
<path d="M182.9548 97.4071
L182.9072 97.5024
" />
<path d="M182.9072 97.5024
L182.8596 97.5500
" />
<path d="M182.8596 96.5500
L182.9072 96.5024
" />
<path d="M182.9072 96.5024
L182.9548 96.5500
" />
<path d="M182.9548 96.5500
L182.9072 96.5976
" />
<path d="M182.9072 96.5976
L182.8596 96.5500
" />
<path d="M182.8596 96.5500
L182.9548 96.5500
" />
<path d="M182.3834 95.9310
L182.3358 96.0262
" />
<path d="M182.3358 96.0262
L182.2882 96.0738
" />
<path d="M182.2882 96.0738
L182.1929 96.1214
" />
<path d="M182.1929 96.1214
L182.1453 96.1214
" />
<path d="M182.1453 96.1214
L182.0501 96.0738
" />
<path d="M182.0501 96.0738
L182.0024 96.0262
" />
<path d="M182.0024 96.0262
L181.9548 95.9310
" />
<path d="M181.9548 95.9310
L181.9548 95.7405
" />
<path d="M181.9548 95.7405
L182.0024 95.6452
" />
<path d="M182.0024 95.6452
L182.0501 95.5976
" />
<path d="M182.0501 95.5976
L182.1453 95.5500
" />
<path d="M182.1453 95.5500
L182.1929 95.5500
" />
<path d="M182.1929 95.5500
L182.2882 95.5976
" />
<path d="M182.2882 95.5976
L182.3358 95.6452
" />
<path d="M182.3358 95.6452
L182.3834 95.7405
" />
<path d="M182.3834 95.7405
L182.3834 95.9310
" />
<path d="M182.3834 95.9310
L182.4310 96.0262
" />
<path d="M182.4310 96.0262
L182.4786 96.0738
" />
<path d="M182.4786 96.0738
L182.5739 96.1214
" />
<path d="M182.5739 96.1214
L182.7643 96.1214
" />
<path d="M182.7643 96.1214
L182.8596 96.0738
" />
<path d="M182.8596 96.0738
L182.9072 96.0262
" />
<path d="M182.9072 96.0262
L182.9548 95.9310
" />
<path d="M182.9548 95.9310
L182.9548 95.7405
" />
<path d="M182.9548 95.7405
L182.9072 95.6452
" />
<path d="M182.9072 95.6452
L182.8596 95.5976
" />
<path d="M182.8596 95.5976
L182.7643 95.5500
" />
<path d="M182.7643 95.5500
L182.5739 95.5500
" />
<path d="M182.5739 95.5500
L182.4786 95.5976
" />
<path d="M182.4786 95.5976
L182.4310 95.6452
" />
<path d="M182.4310 95.6452
L182.3834 95.7405
" />
<path d="M182.3834 94.9786
L182.3358 95.0738
" />
<path d="M182.3358 95.0738
L182.2882 95.1214
" />
<path d="M182.2882 95.1214
L182.1929 95.1690
" />
<path d="M182.1929 95.1690
L182.1453 95.1690
" />
<path d="M182.1453 95.1690
L182.0501 95.1214
" />
<path d="M182.0501 95.1214
L182.0024 95.0738
" />
<path d="M182.0024 95.0738
L181.9548 94.9786
" />
<path d="M181.9548 94.9786
L181.9548 94.7881
" />
<path d="M181.9548 94.7881
L182.0024 94.6929
" />
<path d="M182.0024 94.6929
L182.0501 94.6452
" />
<path d="M182.0501 94.6452
L182.1453 94.5976
" />
<path d="M182.1453 94.5976
L182.1929 94.5976
" />
<path d="M182.1929 94.5976
L182.2882 94.6452
" />
<path d="M182.2882 94.6452
L182.3358 94.6929
" />
<path d="M182.3358 94.6929
L182.3834 94.7881
" />
<path d="M182.3834 94.7881
L182.3834 94.9786
" />
<path d="M182.3834 94.9786
L182.4310 95.0738
" />
<path d="M182.4310 95.0738
L182.4786 95.1214
" />
<path d="M182.4786 95.1214
L182.5739 95.1690
" />
<path d="M182.5739 95.1690
L182.7643 95.1690
" />
<path d="M182.7643 95.1690
L182.8596 95.1214
" />
<path d="M182.8596 95.1214
L182.9072 95.0738
" />
<path d="M182.9072 95.0738
L182.9548 94.9786
" />
<path d="M182.9548 94.9786
L182.9548 94.7881
" />
<path d="M182.9548 94.7881
L182.9072 94.6929
" />
<path d="M182.9072 94.6929
L182.8596 94.6452
" />
<path d="M182.8596 94.6452
L182.7643 94.5976
" />
<path d="M182.7643 94.5976
L182.5739 94.5976
" />
<path d="M182.5739 94.5976
L182.4786 94.6452
" />
<path d="M182.4786 94.6452
L182.4310 94.6929
" />
<path d="M182.4310 94.6929
L182.3834 94.7881
" />
</g></g>
<g style="fill:none; 
stroke:#000000; stroke-width:0.1000; stroke-opacity:1; 
stroke-linecap:round; stroke-linejoin:round;">
<path d="M174.1000 68.6100
L184.2364 68.6100
" />
<path d="M184.2364 124.4900
L174.1000 124.4900
" />
<path d="M183.6500 68.6100
L183.6500 124.4900
" />
<path d="M183.6500 68.6100
L184.2364 69.7365
" />
<path d="M183.6500 68.6100
L183.0636 69.7365
" />
<path d="M183.6500 124.4900
L183.0636 123.3635
" />
<path d="M183.6500 124.4900
L184.2364 123.3635
" />
</g>
<g style="fill:none; 
stroke:#000000; stroke-width:0.1500; stroke-opacity:1; 
stroke-linecap:round; stroke-linejoin:round;">
<g transform="rotate(-90.000000 124.1500 65.8000)">
<text x="124.1500" y="66.3000"
textLength="1.2024" font-size="1.3333" lengthAdjust="spacingAndGlyphs"
text-anchor="middle" opacity="0" stroke-opacity="0">2</text>
</g>
<g class="stroked-text"><desc>2</desc>
<path d="M123.7001 66.0857
L123.6524 66.0381
" />
<path d="M123.6524 66.0381
L123.6048 65.9429
" />
<path d="M123.6048 65.9429
L123.6048 65.7048
" />
<path d="M123.6048 65.7048
L123.6524 65.6095
" />
<path d="M123.6524 65.6095
L123.7001 65.5619
" />
<path d="M123.7001 65.5619
L123.7953 65.5143
" />
<path d="M123.7953 65.5143
L123.8905 65.5143
" />
<path d="M123.8905 65.5143
L124.0334 65.5619
" />
<path d="M124.0334 65.5619
L124.6048 66.1333
" />
<path d="M124.6048 66.1333
L124.6048 65.5143
" />
</g></g>
<g style="fill:none; 
stroke:#000000; stroke-width:0.1000; stroke-opacity:1; 
stroke-linecap:round; stroke-linejoin:round;">
<path d="M128.6500 66.8000
L124.5636 66.8000
" />
<path d="M124.5636 64.8000
L130.6500 64.8000
" />
<path d="M125.1500 66.8000
L125.1500 64.8000
" />
<path d="M125.1500 66.8000
L125.1500 69.3400
" />
<path d="M125.1500 66.8000
L125.7364 67.9265
" />
<path d="M125.1500 66.8000
L124.5636 67.9265
" />
<path d="M125.1500 64.8000
L125.1500 62.2600
" />
<path d="M125.1500 64.8000
L124.5636 63.6735
" />
<path d="M125.1500 64.8000
L125.7364 63.6735
" />
</g> 
</svg>
